# xmcd CD database file
#
# Track frame offsets:
#	150
#	10312
#	21979
#	39971
#	50084
#	65009
#	80050
#	94985
#	111247
#	130937
#	143827
#	156369
#	172653
#	191154
#	207372
#	220439
#
# Disc length: 3115 seconds
#
# Revision: 0
# Processed by: cddbd v1.4PL0 Copyright (c) Steve Scherf et al.
# Submitted via: CDex 1.40Release
#
DISCID=ee0c2910
DTITLE=Jesse Dayton - Wayward Soul
DYEAR=1900
DGENRE=Country
TTITLE0=Wayward Soul
TTITLE1=Date With An Angel
TTITLE2=Never Started Living
TTITLE3=I Dream Too
TTITLE4=Heartbreak California
TTITLE5=Never Been Too Good At Goodbyes
TTITLE6=Letter To Home
TTITLE7=Panhandle Jane
TTITLE8=Don't Take Yesterday
TTITLE9=Mama's Guilty Fool
TTITLE10=Hey! Nashvegas
TTITLE11=Roses Ain't Enough (incorrect - One Life Stand)
TTITLE12=Tongues Of Fire
TTITLE13=One Life Stand
TTITLE14=Full Moon Fool
TTITLE15=Damned Ol' Guitar
EXTD=ID3G: 2
EXTT0=
EXTT1=
EXTT2=
EXTT3=
EXTT4=
EXTT5=
EXTT6=
EXTT7=
EXTT8=
EXTT9=
EXTT10=
EXTT11=
EXTT12=
EXTT13=
EXTT14=
EXTT15=
PLAYORDER=
